<svg version="1.1" id="Layer_1" xmlns="http://www.w3.org/2000/svg" xmlns:xlink="http://www.w3.org/1999/xlink" x="0px" y="0px"
	 width="100%" viewBox="0 0 336 336" enable-background="new 0 0 336 336" xml:space="preserve">
<path fill="#000000" opacity="1.000000" stroke="none" 
	d="
M155.000000,337.000000 
	C103.333344,337.000000 52.166683,337.000000 1.000021,337.000000 
	C1.000014,225.000031 1.000014,113.000061 1.000007,1.000066 
	C112.999947,1.000044 224.999893,1.000044 336.999878,1.000022 
	C336.999939,112.999931 336.999939,224.999863 336.999969,336.999878 
	C276.500000,337.000000 216.000000,337.000000 155.000000,337.000000 
M169.737488,202.244644 
	C182.814758,179.623260 195.960434,157.041046 208.945938,134.367096 
	C218.021820,118.519714 216.874725,101.111061 206.204102,88.648575 
	C189.384552,69.004616 158.995651,70.678131 144.897491,92.415413 
	C137.661697,103.571938 131.371674,115.344048 124.708885,126.869568 
	C109.966042,152.372284 95.277390,177.906311 80.527626,203.405014 
	C72.370003,217.507523 71.979736,231.733185 80.952339,245.389557 
	C96.627106,269.246674 131.098892,267.708038 146.293015,242.592484 
	C154.216995,229.494293 161.666672,216.109161 169.737488,202.244644 
M262.134583,230.520554 
	C262.112762,226.055405 262.662109,221.499756 261.971344,217.140594 
	C258.786682,197.042877 238.179657,182.646835 218.153214,186.217926 
	C197.572250,189.887878 183.263016,209.588470 186.611084,229.644394 
	C189.786499,248.666229 204.761139,261.812775 223.865662,262.350952 
	C242.267090,262.869324 257.552856,250.454742 262.134583,230.520554 
z"/>
<path fill="#ED0C25" opacity="1.000000" stroke="none" 
	d="
M169.534027,202.549133 
	C161.666672,216.109161 154.216995,229.494293 146.293015,242.592484 
	C131.098892,267.708038 96.627106,269.246674 80.952339,245.389557 
	C71.979736,231.733185 72.370003,217.507523 80.527626,203.405014 
	C95.277390,177.906311 109.966042,152.372284 124.708885,126.869568 
	C131.371674,115.344048 137.661697,103.571938 144.897491,92.415413 
	C158.995651,70.678131 189.384552,69.004616 206.204102,88.648575 
	C216.874725,101.111061 218.021820,118.519714 208.945938,134.367096 
	C195.960434,157.041046 182.814758,179.623260 169.534027,202.549133 
z"/>
<path fill="#ED0C25" opacity="1.000000" stroke="none" 
	d="
M262.077850,230.941452 
	C257.552856,250.454742 242.267090,262.869324 223.865662,262.350952 
	C204.761139,261.812775 189.786499,248.666229 186.611084,229.644394 
	C183.263016,209.588470 197.572250,189.887878 218.153214,186.217926 
	C238.179657,182.646835 258.786682,197.042877 261.971344,217.140594 
	C262.662109,221.499756 262.112762,226.055405 262.077850,230.941452 
z"/>
</svg>